<svg xmlns="http://www.w3.org/2000/svg">
  <symbol viewbox="0 0 47 56" id="apple-logo" fill="none">
    <path
      d="M39.2449 29.7391c.0095 2.4155.7491 4.7753 2.1274 6.7877 1.3783 2.0125 3.3348 3.5894 5.6277 4.5359-.9221 2.8295-2.2699 5.5117-3.9997 7.96-2.4018 3.4129-4.9054 6.8159-8.8441 6.9046-3.9386.0888-5.0886-2.2193-9.5259-2.2193-4.4373 0-5.8011 2.1503-9.4649 2.2884-3.6638.1381-6.68651-3.7186-9.08835-7.1118C1.1207 41.98-2.67543 29.246 2.41322 20.6842c1.19673-2.0719 2.92777-3.8073 5.02386-5.0366 2.09609-1.2293 4.48542-1.9103 6.93452-1.9765 3.7248-.069 7.2462 2.4265 9.5259 2.4265s6.5644-3.0084 11.0627-2.5646c2.0835.0733 4.1213.6127 5.954 1.5761 1.8326.9634 3.4105 2.3246 4.6101 3.9772-.2748.1677-6.3099 3.5707-6.2489 10.6528h-.0305ZM31.9783 8.93654C34.1591 6.45976 35.2387 3.24645 34.9806 0c-3.3045.302095-6.3639 1.81996-8.5489 4.2414-1.8625 2.09111-3.501 5.44478-3.0532 8.6604 3.2465.2466 6.5542-1.598 8.5693-3.94553"
      fill="#fff" />
  </symbol>
  <symbol viewbox="0 0 43 47" fill="none" id="android-logo">
    <path
      d="M34.8864 14.0617H8.11359v19.1338c-.01061.9123.33289 1.7945.96091 2.4678.62801.6734 1.4936 1.0875 2.4215 1.1586v7.4532c.0442.7371.3741 1.4297.9221 1.9363.548.5065 1.2728.7886 2.0259.7886.7532 0 1.4779-.2821 2.0259-.7886.548-.5066.8779-1.1992.9222-1.9363V36.842h8.2362v7.4331c.0443.7371.3742 1.4297.9222 1.9363.548.5065 1.2727.7886 2.0259.7886.7532 0 1.4779-.2821 2.0259-.7886.548-.5066.8779-1.1992.9222-1.9363v-7.4532c.9287-.071 1.7955-.4848 2.4251-1.1579.6297-.673.9754-1.5552.9674-2.4685V14.4023c-.0102-.1102-.0204-.2204-.0306-.3406ZM2.95318 15.7446c.78053 0 1.52908.304 2.08099.8451.55192.541.86198 1.2749.86198 2.04v12.402c.00134.3797-.07379.7559-.22108 1.1071-.1473.3512-.36386.6705-.63728.9394-.27341.269-.59829.4824-.95602.628-.35772.1456-.74125.2206-1.12859.2206-.78323 0-1.53438-.305-2.088213-.848C.311138 32.5359 0 31.7995 0 31.0317v-12.402c-.00000233-.3797.076457-.7557.224993-1.1064.148537-.3507.366228-.6692.640591-.9372.274366-.268.599996-.4803.958236-.6247.35824-.1444.74203-.2181 1.12936-.2168ZM40.057 15.7446c.7805 0 1.5291.304 2.081.8451.5519.541.862 1.2749.862 2.04v12.402c.0013.3797-.0738.7559-.2211 1.1071-.1473.3512-.3639.6705-.6373.9394-.2734.269-.5983.4824-.956.628-.3577.1456-.7412.2206-1.1286.2206-.7832 0-1.5344-.305-2.0882-.848-.5538-.5429-.865-1.2793-.865-2.0471v-12.402c0-.3797.0765-.7557.225-1.1064.1486-.3507.3663-.6692.6406-.9372.2744-.268.6-.4803.9583-.6247.3582-.1444.742-.2181 1.1293-.2168ZM8.1749 12.0581h26.5684c-.0676-2.75626-1.2385-5.37584-3.2597-7.29289L34.0485.497656c.0268-.036992.0451-.079308.0534-.123967.0084-.044659.0067-.090574-.005-.13451-.0117-.043936-.0331-.084824-.0626-.119783-.0296-.0349597-.0666-.0631398-.1085-.0825552-.071-.03732463-.1539-.04670559-.2317-.0262328-.0778.0204728-.1448.06926-.1872.136428L31.0851 4.30439c-2.7595-2.1066-6.1302-3.29931-9.626-3.406025-3.4746.134625-6.8207 1.324885-9.5748 3.406025L9.50332.187107C9.46579.112239 9.39997.0546621 9.31983.0266048c-.08013-.02805737-.16827-.02438543-.24569.010236-.06926.0434338-.11929.1108522-.14012.1888252s-.01094.160778.02772.231919L11.4551 4.69508C9.41279 6.62849 8.2336 9.27542 8.1749 12.0581Zm17.6987-5.20921c0-.39853.1615-.78073.4489-1.06254.2875-.2818.6773-.44012 1.0839-.44012.4065 0 .7964.15832 1.0838.44012.2875.28181.4489.66401.4489 1.06254 0 .39853-.1614.78074-.4489 1.06254-.2874.28181-.6773.44012-1.0838.44012-.4066 0-.7964-.15831-1.0839-.44012-.2874-.2818-.4489-.66401-.4489-1.06254Zm-11.3836 0c0-.39853.1615-.78073.449-1.06254.2874-.2818.6773-.44012 1.0838-.44012.4065 0 .7964.15832 1.0839.44012.2874.28181.4489.66401.4489 1.06254 0 .39853-.1615.78074-.4489 1.06254-.2875.28181-.6774.44012-1.0839.44012-.4065 0-.7964-.15831-1.0838-.44012-.2875-.2818-.449-.66401-.449-1.06254Z"
      fill="#A4C639" />
  </symbol>
  <symbol width="44" height="41" viewbox="0 0 44 41" fill="none" id="microsoft-logo">
    <path d="M20.908 19.5238H0V0h20.908v19.5238Z" fill="#F05423" />
    <path d="M44.0001 19.5238H23.092V0h20.9081v19.5238Z" fill="#84C441" />
    <path d="M20.908 41H0V21.4762h20.908V41Z" fill="#2DABE2" />
    <path d="M44.0001 41H23.092V21.4762h20.9081V41Z" fill="#F9BC15" />
  </symbol>
  <symbol viewbox="0 0 31 21" fill="none" id="yes">
    <path
      d="M30.5559.429509c-.1425-.136097-.312-.24412-.4988-.317838C29.8703.0379536 29.67 0 29.4676 0c-.2023 0-.4026.0379536-.5894.111671-.1868.073718-.3563.181741-.4988.317838L10.3744 17.4958l-7.7967-7.3861c-.29056-.25645-.67487-.39608-1.07197-.38945-.39709.00664-.77596.15903-1.056791.42505-.280831.2661-.44169396.625-.4487002 1.0011-.00700624.3762.1403922.7403.4111412 1.0155l8.87986 8.4122c.14186.1353.31063.2426.49656.3157.18592.0731.3853.1106.5866.1102.4062-.0014.7954-.1544 1.0832-.4259L30.5559 2.48172c.2846-.2735.4441-.64209.4441-1.02611 0-.38401-.1595-.752607-.4441-1.026101Z"
      fill="#3DC644" />
  </symbol>
  <symbol viewbox="0 0 27 27" fill="none" id="no">
    <path
      d="M15.6444 13.5065 26.5531 2.58654c.1416-.13987.254-.30645.3307-.49009.0767-.18364.1162-.38068.1162-.57971 0-.19902-.0395-.39606-.1162-.579699-.0767-.183638-.1891-.350221-.3307-.490089-.2851-.281053-.6694-.43860768-1.0697-.43860768-.4003 0-.7846.15755468-1.0697.43860768L13.505 11.3669 2.58626.446952C2.44641.305366 2.27984.192953 2.09622.11623 1.9126.0395068 1.71558 0 1.51658 0c-.199 0-.39602.0395068-.579639.11623C.753322.192953.586757.305366.446904.446952.165881.73209.00834343 1.11638.00834343 1.51674c0 .40037.15753757.78466.43856057 1.0698L11.3657 13.5065.446904 24.4164c-.141571.1398-.253972.3064-.330687.49C.0395025 25.0901 0 25.2871 0 25.4861c0 .1991.0395025.3961.116217.5797.076715.1837.189116.3503.330687.4901.283819.2835.668546.4428 1.069676.4428.40113 0 .78586-.1593 1.06968-.4428L13.505 15.6461l10.9087 10.9098c.2843.2831.6686.4426 1.0697.4441.2992-.0003.5916-.0892.8403-.2556.2487-.1663.4425-.4027.5569-.6791.1145-.2765.1445-.5806.0862-.8741-.0583-.2935-.2023-.5631-.4137-.7748L15.6444 13.5065Z"
      fill="#F25B26" />
  </symbol>
  <symbol viewbox="0 0 79 63" fill="none" id="quotes">
    <path
      d="M35.1468 6.97257 30.8388 0C28.3886 1.48142 0 12.0588 0 39.1293 0 46.2698.341426 63 18.9793 63c11.2369 0 13.9985-10.1527 13.9985-13.4217 0-21.7275-21.4697-13.9945-21.4697-13.9945 0-17.8067 19.883-26.51749 23.6387-28.61123ZM79 6.97257 74.7322 0C72.302 1.48142 43.8833 12.0588 43.8833 39.1293c0 7.1405.3414 23.8707 18.9893 23.8707 11.2269 0 13.9885-10.1527 13.9885-13.4217 0-21.7275-21.4697-13.9945-21.4697-13.9945C55.3914 17.7771 75.3146 9.06631 79 6.97257Z"
      fill="#EFEFEF" />
  </symbol>

  <symbol viewbox="0 0 18 11" id="vk">
    <path fill-rule="evenodd" clip-rule="evenodd"
      d="M17.5875 0.711C17.712 0.3015 17.5875 0 16.9913 0H15.0225C14.5215 0 14.2905 0.26025 14.1652 0.5475C14.1652 0.5475 13.164 2.9445 11.7458 4.5015C11.2867 4.953 11.0782 5.09625 10.8278 5.09625C10.7025 5.09625 10.5142 4.953 10.5142 4.54275V0.711C10.5142 0.219 10.3763 0 9.95925 0H6.86325C6.5505 0 6.36225 0.228 6.36225 0.44475C6.36225 0.9105 7.07175 1.0185 7.1445 2.3295V5.178C7.1445 5.80275 7.02975 5.916 6.77925 5.916C6.11175 5.916 4.488 3.50775 3.52425 0.75225C3.3375 0.216 3.1485 0 2.64525 0H0.675C0.1125 0 0 0.26025 0 0.5475C0 1.059 0.6675 3.6 3.10875 6.96075C4.73625 9.25575 7.0275 10.5 9.11475 10.5C10.3665 10.5 10.521 10.224 10.521 9.74775V8.013C10.521 7.46025 10.6395 7.35 11.0363 7.35C11.3287 7.35 11.829 7.494 12.9975 8.60025C14.3325 9.912 14.5523 10.5 15.3038 10.5H17.2725C17.835 10.5 18.117 10.224 17.955 9.678C17.7765 9.135 17.139 8.34675 16.2938 7.4115C15.8348 6.879 15.1463 6.30525 14.937 6.018C14.6453 5.64975 14.7285 5.4855 14.937 5.15775C14.937 5.15775 17.337 1.83825 17.5868 0.711H17.5875Z"
      fill="#D22856" />
  </symbol>
  <symbol viewbox="0 0 16 14" id="telegram">
    <path
      d="M15.7034 1.20204L13.3269 12.4099C13.1474 13.2007 12.68 13.3976 12.0157 13.0252L8.39432 10.3567L6.6472 12.0375C6.4537 12.231 6.29226 12.3924 5.91932 12.3924L6.17976 8.70467L12.8909 2.64035C13.1829 2.38048 12.8274 2.23592 12.4376 2.49635L4.1407 7.72085L0.568821 6.6026C-0.207991 6.36017 -0.222054 5.82579 0.730821 5.45285L14.7016 0.0702911C15.3485 -0.172146 15.9144 0.214291 15.7034 1.2026V1.20204Z"
      fill="#D22856" />
  </symbol>

  <symbol viewbox="0 0 15 13" id="youtube">
    <path
      d="M1.83356 12.8089C1.64633 12.9278 1.42471 12.9941 1.19626 12.9996C0.967817 13.0051 0.74263 12.9495 0.548717 12.8398C0.354804 12.7301 0.200724 12.571 0.105646 12.3824C0.010569 12.1938 -0.0213097 11.984 0.0139762 11.779V1.22097C-0.0213097 1.01605 0.010569 0.806234 0.105646 0.617628C0.200724 0.429021 0.354804 0.269949 0.548717 0.1602C0.74263 0.0504516 0.967817 -0.00512927 1.19626 0.000372265C1.42471 0.0058738 1.64633 0.0722149 1.83356 0.191142L14.2333 5.69284C15.2556 6.13817 15.2556 6.86183 14.2333 7.30716L1.83356 12.8089Z"
      fill="#D22856" />
  </symbol>
  <symbol viewbox="0 0 27 34" id="academy">
      <path d="M13.6426 0.0157537L13.5 0L0 1.40733V26.0129L13.5 34L27 26.0129V1.40733L13.6426 0.0157537ZM25.2344 25.0151L13.5 31.9573L1.76561 25.0151V14.9293L13.4507 21.8451L13.4701 23.0984L5.45351 18.3548L5.44295 19.5801L13.4894 24.3885L13.5088 25.675L5.46408 20.9174L5.45351 22.1427L13.5 26.9511L21.6239 22.1182V20.8929V16.909L25.2432 14.7595L25.2344 25.0151ZM25.2344 13.4519L22.0147 15.3319L20.5325 16.2071L13.4666 12.0201L13.456 13.2454L19.4957 16.818L19.4429 16.8495L19.3126 16.9247L18.4536 17.4166L13.4666 14.4689L13.456 15.6942L17.3921 18.0222L16.4591 18.6314L16.438 18.6436L13.4666 16.902L13.456 18.1273L15.4029 19.2615L13.4155 20.4483L1.7973 13.5762L13.4349 6.61831L25.2344 13.4519ZM25.2344 12.2266L13.4401 5.31075L1.76561 12.2196V2.9897L13.5 1.76442L25.2344 2.9897V12.2266Z"/>
  </symbol>

  <symbol viewbox="0 0 22 41" id="right-arrow">
    <path
      d="M19.9587 20.4965L0.251671 39.5856C0.171938 39.6621 0.108643 39.7532 0.065443 39.8535C0.0222435 39.9539 0 40.0616 0 40.1704C0 40.2791 0.0222435 40.3868 0.065443 40.4872C0.108643 40.5876 0.171938 40.6786 0.251671 40.7551C0.33144 40.8327 0.426224 40.8943 0.530588 40.9363C0.634953 40.9784 0.746847 41 0.859852 41C0.972857 41 1.08475 40.9784 1.18911 40.9363C1.29348 40.8943 1.38826 40.8327 1.46803 40.7551L21.7475 21.0912C21.8275 21.0138 21.891 20.9219 21.9344 20.8207C21.9777 20.7195 22 20.611 22 20.5015C22 20.3919 21.9777 20.2834 21.9344 20.1822C21.891 20.081 21.8275 19.9891 21.7475 19.9117L1.46803 0.237877C1.30326 0.0842934 1.08329 -0.00102615 0.85474 7.62939e-06C0.6861 0.00154114 0.52166 0.0511971 0.381939 0.14278C0.24222 0.234364 0.133411 0.363811 0.069088 0.51498C0.00476646 0.666149 -0.0122204 0.83234 0.0202503 0.992809C0.052721 1.15328 0.133209 1.30093 0.251671 1.41732L19.9587 20.4965Z" />
  </symbol>
  <symbol viewbox="0 0 22 41" id="left-arrow">
    <path
      d="M2.0413 20.5035L21.7483 1.4144C21.8281 1.3379 21.8914 1.24683 21.9346 1.14646C21.9778 1.04608 22 0.938398 22 0.829635C22 0.720871 21.9778 0.613187 21.9346 0.512814C21.8914 0.41244 21.8281 0.321369 21.7483 0.24487C21.6686 0.167255 21.5738 0.105671 21.4694 0.0636507C21.365 0.0216304 21.2532 0 21.1401 0C21.0271 0 20.9153 0.0216304 20.8109 0.0636507C20.7065 0.105671 20.6117 0.167255 20.532 0.24487L0.252535 19.9088C0.17249 19.9862 0.108978 20.0781 0.0656429 20.1793C0.0223074 20.2805 0 20.389 0 20.4985C0 20.6081 0.0223074 20.7166 0.0656429 20.8178C0.108978 20.919 0.17249 21.0109 0.252535 21.0883L20.532 40.7621C20.6967 40.9157 20.9167 41.001 21.1453 41C21.3139 40.9985 21.4783 40.9488 21.6181 40.8572C21.7578 40.7656 21.8666 40.6362 21.9309 40.485C21.9952 40.3339 22.0122 40.1677 21.9797 40.0072C21.9473 39.8467 21.8668 39.6991 21.7483 39.5827L2.0413 20.5035Z" />
  </symbol>
  <symbol viewbox="0 0 20 19" id="phone-icon">
    <path
      d="M10.0408 0C6.46361 0 2.90684 0.608386 1.58197 1.8155C0.624506 2.9164 0.0701613 4.28212 0.00231714 5.70724C-0.000772379 5.76193 -0.000772379 5.81673 0.00231714 5.87141C0.00231714 6.08143 0.0903626 6.28284 0.247084 6.43135C0.403806 6.57985 0.616367 6.66328 0.838005 6.66328L4.07884 6.4122H4.16037C4.26878 6.41094 4.37587 6.38946 4.47551 6.34898C4.57516 6.3085 4.66541 6.24982 4.74112 6.17628C4.81683 6.10275 4.87651 6.0158 4.91676 5.92041C4.95701 5.82502 4.97703 5.72305 4.97568 5.62033V4.04625C4.97433 3.93131 4.99706 3.81725 5.04255 3.71069C5.08804 3.60412 5.15539 3.50717 5.2407 3.42544C5.326 3.34371 5.42757 3.27882 5.53952 3.23454C5.65148 3.19026 5.77159 3.16746 5.8929 3.16747H14.046C14.2919 3.16747 14.5278 3.26006 14.7017 3.42486C14.8757 3.58966 14.9734 3.81318 14.9734 4.04625V5.60102C14.9733 5.80773 15.0585 6.00627 15.2109 6.15423C15.3632 6.30219 15.5706 6.38784 15.7887 6.39288H15.8804L19.162 6.64396C19.2717 6.64396 19.3804 6.62348 19.4818 6.58369C19.5832 6.54389 19.6753 6.48556 19.7529 6.41203C19.8305 6.3385 19.8921 6.2512 19.9341 6.15513C19.9761 6.05906 19.9977 5.95609 19.9977 5.8521C20.0008 5.79741 20.0008 5.74261 19.9977 5.68793C19.9242 4.27608 19.378 2.92311 18.4384 1.82516C17.1951 0.608386 13.6179 0 10.0408 0ZM10.0408 10.3039C9.7102 10.3039 9.38705 10.3968 9.1122 10.5708C8.83734 10.7449 8.62312 10.9922 8.49662 11.2816C8.37011 11.571 8.33701 11.8894 8.4015 12.1966C8.46599 12.5039 8.62518 12.7861 8.85892 13.0075C9.09267 13.229 9.39048 13.3799 9.7147 13.441C10.0389 13.5021 10.375 13.4707 10.6804 13.3509C10.9858 13.231 11.2468 13.028 11.4305 12.7676C11.6141 12.5071 11.7121 12.2009 11.7121 11.8877C11.7135 11.6793 11.6712 11.4728 11.5877 11.2801C11.5042 11.0874 11.3811 10.9123 11.2256 10.7649C11.0702 10.6176 10.8854 10.501 10.682 10.4219C10.4786 10.3427 10.2606 10.3027 10.0408 10.3039ZM8.78723 6.75985V5.79416C8.78723 5.53804 8.67986 5.29241 8.48874 5.11131C8.29761 4.9302 8.03839 4.82846 7.7681 4.82846C7.49781 4.82846 7.23859 4.9302 7.04747 5.11131C6.85634 5.29241 6.74897 5.53804 6.74897 5.79416V6.75985L1.02145 12.4478C0.818967 12.6306 0.658375 12.8511 0.54967 13.0953C0.440965 13.3395 0.386473 13.6023 0.389587 13.8673V15.4511C0.389579 15.872 0.565344 16.2758 0.878498 16.5744C1.19165 16.8729 1.61675 17.0419 2.06096 17.0445H2.47881V18.0102C2.47881 18.1402 2.50583 18.2689 2.55832 18.389C2.61082 18.5091 2.68777 18.6182 2.78477 18.7101C2.88177 18.802 2.99692 18.8749 3.12366 18.9247C3.2504 18.9744 3.38624 19 3.52342 19C3.6606 19 3.79643 18.9744 3.92317 18.9247C4.04991 18.8749 4.16507 18.802 4.26207 18.7101C4.35907 18.6182 4.43601 18.5091 4.48851 18.389C4.54101 18.2689 4.56803 18.1402 4.56803 18.0102V17.0445H15.4727V18.0102C15.4727 18.2727 15.5828 18.5245 15.7787 18.7101C15.9746 18.8957 16.2403 19 16.5173 19C16.7944 19 17.0601 18.8957 17.256 18.7101C17.4519 18.5245 17.562 18.2727 17.562 18.0102V17.0445H17.9798C18.2001 17.0445 18.4183 17.0032 18.6218 16.923C18.8252 16.8428 19.0099 16.7253 19.1653 16.5772C19.3206 16.4291 19.4435 16.2534 19.5269 16.0601C19.6103 15.8669 19.6525 15.6599 19.6512 15.4511V13.8673C19.6556 13.603 19.6027 13.3406 19.4958 13.0964C19.3888 12.8523 19.2301 12.6315 19.0295 12.4478L13.3835 6.75985V5.79416C13.3835 5.53163 13.2735 5.27987 13.0776 5.09424C12.8817 4.90861 12.616 4.80432 12.3389 4.80432C12.0619 4.80432 11.7962 4.90861 11.6003 5.09424C11.4044 5.27987 11.2943 5.53163 11.2943 5.79416V6.75985H8.78723ZM10.0408 8.69123C10.7019 8.69123 11.3482 8.877 11.8979 9.22505C12.4476 9.57309 12.8761 10.0678 13.1291 10.6466C13.3821 11.2253 13.4483 11.8622 13.3193 12.4766C13.1903 13.0911 12.8719 13.6555 12.4044 14.0984C11.937 14.5414 11.3413 14.8431 10.6929 14.9653C10.0445 15.0875 9.37236 15.0248 8.76155 14.7851C8.15074 14.5453 7.62867 14.1393 7.26137 13.6185C6.89406 13.0976 6.69801 12.4852 6.69801 11.8587C6.69801 11.0186 7.05019 10.213 7.67708 9.61896C8.30397 9.02495 9.15421 8.69123 10.0408 8.69123Z"
      fill="#D22856" />
  </symbol>
  <symbol viewbox="0 0 18 13" id="mail-icon">
    <path
      d="M14.9101 1.68071C16.1101 0.752143 15.8201 0 14.2601 0H3.73007C2.17007 0 1.88007 0.761428 3.07007 1.68071L6.82007 4.57786C7.44102 5.02891 8.2067 5.27397 8.99507 5.27397C9.78344 5.27397 10.5491 5.02891 11.1701 4.57786L14.9101 1.68071Z"
      fill="#D22856" />
    <path
      d="M11.9101 6.5L9.70007 8.24571C9.61906 8.29331 9.53164 8.33078 9.44007 8.35714L9.34007 8.40357C9.23142 8.44582 9.11701 8.47395 9.00007 8.48714L8.67007 8.43143L8.55007 8.35714C8.46475 8.3229 8.38417 8.27925 8.31007 8.22714L6.08007 6.5L2.18007 3.52857C1.00007 2.6 7.0672e-05 3.02714 7.0672e-05 4.47571V10.335C-0.002565 10.6825 0.0685454 11.0272 0.209341 11.3492C0.350138 11.6712 0.557862 11.9643 0.820654 12.2118C1.08345 12.4592 1.39616 12.6562 1.74093 12.7915C2.08571 12.9267 2.4558 12.9976 2.83007 13H15.1501C15.526 13 15.8983 12.9309 16.2454 12.7968C16.5924 12.6626 16.9075 12.466 17.1724 12.2183C17.4373 11.9706 17.6469 11.6767 17.7889 11.3534C17.9309 11.0302 18.0027 10.6841 18.0001 10.335V4.47571C18.0001 3.02714 17.0001 2.61857 15.8201 3.54714L11.9101 6.5Z"
      fill="#D22856" />
  </symbol>
  <symbol viewbox="0 0 13 12" id="like">
    <path
      d="M6.46867 12C6.3589 12.0014 6.25012 11.9798 6.14988 11.9367C6.04963 11.8935 5.96033 11.8298 5.88815 11.75C1.95926 7.42 1.03665 6.44 0.860416 6.17C0.307088 5.49497 0.00416162 4.66056 0 3.8C0.00441359 3.07425 0.223059 2.36473 0.63034 1.7545C1.03762 1.14428 1.61668 0.658598 2.29973 0.354328C2.98278 0.0500576 3.74155 -0.0602132 4.48721 0.036425C5.23287 0.133063 5.93456 0.432611 6.51014 0.9C7.22774 0.319491 8.13412 0.00090711 9.07066 0C10.1136 0.00264761 11.1129 0.404172 11.8494 1.11652C12.5859 1.82888 12.9995 2.79391 12.9995 3.8C13.014 4.67715 12.6845 5.5272 12.0769 6.18L7.03883 11.74C6.9678 11.8185 6.88016 11.8814 6.78182 11.9246C6.68348 11.9677 6.5767 11.99 6.46867 11.99V12ZM2.07329 5.28C2.29099 5.54 4.63381 8.12 6.46867 10.14L10.947 5.2C11.3073 4.81798 11.5005 4.3163 11.486 3.8C11.486 3.18205 11.2316 2.5894 10.7786 2.15244C10.3256 1.71548 9.71126 1.47 9.07066 1.47C8.69007 1.47297 8.31512 1.55909 7.97398 1.7219C7.63285 1.8847 7.33439 2.11996 7.10103 2.41C7.02566 2.49603 6.9321 2.56553 6.82661 2.61382C6.72113 2.66211 6.60615 2.68809 6.48941 2.69C6.37337 2.68847 6.25936 2.6605 6.15667 2.60836C6.05398 2.55622 5.96552 2.4814 5.89852 2.39C5.66784 2.10104 5.37087 1.86758 5.03093 1.70796C4.69099 1.54833 4.31732 1.46688 3.93926 1.47C3.48505 1.47534 3.04153 1.6036 2.65919 1.84016C2.27684 2.07673 1.97103 2.41211 1.77658 2.8081C1.58213 3.2041 1.50684 3.64481 1.5593 4.08006C1.61176 4.51531 1.78985 4.9276 2.07329 5.27V5.28Z"
      fill="#D22856" />
  </symbol>
  <symbol viewbox="0 0 44 44" id="edit-size">
    <path
      d="M32 28H36V12C36 10.9391 35.5786 9.92172 34.8284 9.17157C34.0783 8.42143 33.0609 8 32 8H16V12H32V28ZM12 32V0H8V8H0V12H8V32C8 33.0609 8.42143 34.0783 9.17157 34.8284C9.92172 35.5786 10.9391 36 12 36H32V44H36V36H44V32H12Z" />
  </symbol>
  <symbol viewbox="0 0 48 43" id="edit-color">
    <path
      d="M33.12 17.88L15.24 0L12.41 2.83L17.17 7.59L6.88 17.88C6.3182 18.4425 6.00264 19.205 6.00264 20C6.00264 20.795 6.3182 21.5575 6.88 22.12L17.88 33.12C18.4425 33.6818 19.205 33.9974 20 33.9974C20.795 33.9974 21.5575 33.6818 22.12 33.12L33.12 22.12C33.6818 21.5575 33.9974 20.795 33.9974 20C33.9974 19.205 33.6818 18.4425 33.12 17.88ZM10.41 20L20 10.42L29.59 20H10.41ZM38 23C38 23 34 27.33 34 30C34 31.0609 34.4214 32.0783 35.1716 32.8284C35.9217 33.5786 36.9391 34 38 34C39.0609 34 40.0783 33.5786 40.8284 32.8284C41.5786 32.0783 42 31.0609 42 30C42 27.33 38 23 38 23Z" />
    <path d="M48 40H0V43H48V40Z" />
  </symbol>
  <symbol viewbox="0 0 32 32" id="edit-contrast">
    <path
      d="M16 4C18.3734 4 20.6935 4.70379 22.6669 6.02236C24.6402 7.34094 26.1783 9.21509 27.0866 11.4078C27.9948 13.6005 28.2325 16.0133 27.7694 18.3411C27.3064 20.6689 26.1635 22.8071 24.4853 24.4853C22.8071 26.1635 20.6689 27.3064 18.3411 27.7694C16.0133 28.2324 13.6005 27.9948 11.4078 27.0866C9.21509 26.1783 7.34095 24.6402 6.02237 22.6668C4.70379 20.6935 4.00001 18.3734 4.00001 16C4.00001 12.8174 5.26429 9.76515 7.51473 7.51472C9.76516 5.26428 12.8174 4 16 4ZM16 0C12.8355 0 9.74207 0.938384 7.11088 2.69649C4.4797 4.45459 2.42894 6.95345 1.21793 9.87706C0.0069325 12.8007 -0.309921 16.0177 0.307443 19.1214C0.924806 22.2251 2.44866 25.0761 4.6863 27.3137C6.92394 29.5513 9.77487 31.0752 12.8786 31.6926C15.9823 32.3099 19.1993 31.9931 22.1229 30.7821C25.0466 29.5711 27.5454 27.5203 29.3035 24.8891C31.0616 22.2579 32 19.1645 32 16C32 11.7565 30.3143 7.68687 27.3137 4.68629C24.3131 1.68571 20.2435 0 16 0Z" />
    <path
      d="M16 24.29C18.1536 24.1422 20.1708 23.1824 21.644 21.6046C23.1172 20.0268 23.9366 17.9486 23.9366 15.79C23.9366 13.6314 23.1172 11.5532 21.644 9.97538C20.1708 8.39759 18.1536 7.43782 16 7.29" />
  </symbol>
</svg>
