<svg xmlns="http://www.w3.org/2000/svg">
  <symbol viewbox="0 0 47 56" id="apple-logo" fill="none">
    <path
      d="M39.2449 29.7391c.0095 2.4155.7491 4.7753 2.1274 6.7877 1.3783 2.0125 3.3348 3.5894 5.6277 4.5359-.9221 2.8295-2.2699 5.5117-3.9997 7.96-2.4018 3.4129-4.9054 6.8159-8.8441 6.9046-3.9386.0888-5.0886-2.2193-9.5259-2.2193-4.4373 0-5.8011 2.1503-9.4649 2.2884-3.6638.1381-6.68651-3.7186-9.08835-7.1118C1.1207 41.98-2.67543 29.246 2.41322 20.6842c1.19673-2.0719 2.92777-3.8073 5.02386-5.0366 2.09609-1.2293 4.48542-1.9103 6.93452-1.9765 3.7248-.069 7.2462 2.4265 9.5259 2.4265s6.5644-3.0084 11.0627-2.5646c2.0835.0733 4.1213.6127 5.954 1.5761 1.8326.9634 3.4105 2.3246 4.6101 3.9772-.2748.1677-6.3099 3.5707-6.2489 10.6528h-.0305ZM31.9783 8.93654C34.1591 6.45976 35.2387 3.24645 34.9806 0c-3.3045.302095-6.3639 1.81996-8.5489 4.2414-1.8625 2.09111-3.501 5.44478-3.0532 8.6604 3.2465.2466 6.5542-1.598 8.5693-3.94553"
      fill="#fff" />
  </symbol>
  <symbol viewBox="0 0 43 47" fill="none" id="android-logo">
    <path
      d="M34.8864 14.0617H8.11359v19.1338c-.01061.9123.33289 1.7945.96091 2.4678.62801.6734 1.4936 1.0875 2.4215 1.1586v7.4532c.0442.7371.3741 1.4297.9221 1.9363.548.5065 1.2728.7886 2.0259.7886.7532 0 1.4779-.2821 2.0259-.7886.548-.5066.8779-1.1992.9222-1.9363V36.842h8.2362v7.4331c.0443.7371.3742 1.4297.9222 1.9363.548.5065 1.2727.7886 2.0259.7886.7532 0 1.4779-.2821 2.0259-.7886.548-.5066.8779-1.1992.9222-1.9363v-7.4532c.9287-.071 1.7955-.4848 2.4251-1.1579.6297-.673.9754-1.5552.9674-2.4685V14.4023c-.0102-.1102-.0204-.2204-.0306-.3406ZM2.95318 15.7446c.78053 0 1.52908.304 2.08099.8451.55192.541.86198 1.2749.86198 2.04v12.402c.00134.3797-.07379.7559-.22108 1.1071-.1473.3512-.36386.6705-.63728.9394-.27341.269-.59829.4824-.95602.628-.35772.1456-.74125.2206-1.12859.2206-.78323 0-1.53438-.305-2.088213-.848C.311138 32.5359 0 31.7995 0 31.0317v-12.402c-.00000233-.3797.076457-.7557.224993-1.1064.148537-.3507.366228-.6692.640591-.9372.274366-.268.599996-.4803.958236-.6247.35824-.1444.74203-.2181 1.12936-.2168ZM40.057 15.7446c.7805 0 1.5291.304 2.081.8451.5519.541.862 1.2749.862 2.04v12.402c.0013.3797-.0738.7559-.2211 1.1071-.1473.3512-.3639.6705-.6373.9394-.2734.269-.5983.4824-.956.628-.3577.1456-.7412.2206-1.1286.2206-.7832 0-1.5344-.305-2.0882-.848-.5538-.5429-.865-1.2793-.865-2.0471v-12.402c0-.3797.0765-.7557.225-1.1064.1486-.3507.3663-.6692.6406-.9372.2744-.268.6-.4803.9583-.6247.3582-.1444.742-.2181 1.1293-.2168ZM8.1749 12.0581h26.5684c-.0676-2.75626-1.2385-5.37584-3.2597-7.29289L34.0485.497656c.0268-.036992.0451-.079308.0534-.123967.0084-.044659.0067-.090574-.005-.13451-.0117-.043936-.0331-.084824-.0626-.119783-.0296-.0349597-.0666-.0631398-.1085-.0825552-.071-.03732463-.1539-.04670559-.2317-.0262328-.0778.0204728-.1448.06926-.1872.136428L31.0851 4.30439c-2.7595-2.1066-6.1302-3.29931-9.626-3.406025-3.4746.134625-6.8207 1.324885-9.5748 3.406025L9.50332.187107C9.46579.112239 9.39997.0546621 9.31983.0266048c-.08013-.02805737-.16827-.02438543-.24569.010236-.06926.0434338-.11929.1108522-.14012.1888252s-.01094.160778.02772.231919L11.4551 4.69508C9.41279 6.62849 8.2336 9.27542 8.1749 12.0581Zm17.6987-5.20921c0-.39853.1615-.78073.4489-1.06254.2875-.2818.6773-.44012 1.0839-.44012.4065 0 .7964.15832 1.0838.44012.2875.28181.4489.66401.4489 1.06254 0 .39853-.1614.78074-.4489 1.06254-.2874.28181-.6773.44012-1.0838.44012-.4066 0-.7964-.15831-1.0839-.44012-.2874-.2818-.4489-.66401-.4489-1.06254Zm-11.3836 0c0-.39853.1615-.78073.449-1.06254.2874-.2818.6773-.44012 1.0838-.44012.4065 0 .7964.15832 1.0839.44012.2874.28181.4489.66401.4489 1.06254 0 .39853-.1615.78074-.4489 1.06254-.2875.28181-.6774.44012-1.0839.44012-.4065 0-.7964-.15831-1.0838-.44012-.2875-.2818-.449-.66401-.449-1.06254Z"
      fill="#A4C639" />
  </symbol>
  <symbol width="44" height="41" viewBox="0 0 44 41" fill="none" id="microsoft-logo">
    <path d="M20.908 19.5238H0V0h20.908v19.5238Z" fill="#F05423" />
    <path d="M44.0001 19.5238H23.092V0h20.9081v19.5238Z" fill="#84C441" />
    <path d="M20.908 41H0V21.4762h20.908V41Z" fill="#2DABE2" />
    <path d="M44.0001 41H23.092V21.4762h20.9081V41Z" fill="#F9BC15" />
  </symbol>
  <symbol viewBox="0 0 31 21" fill="none" id="yes">
    <path
      d="M30.5559.429509c-.1425-.136097-.312-.24412-.4988-.317838C29.8703.0379536 29.67 0 29.4676 0c-.2023 0-.4026.0379536-.5894.111671-.1868.073718-.3563.181741-.4988.317838L10.3744 17.4958l-7.7967-7.3861c-.29056-.25645-.67487-.39608-1.07197-.38945-.39709.00664-.77596.15903-1.056791.42505-.280831.2661-.44169396.625-.4487002 1.0011-.00700624.3762.1403922.7403.4111412 1.0155l8.87986 8.4122c.14186.1353.31063.2426.49656.3157.18592.0731.3853.1106.5866.1102.4062-.0014.7954-.1544 1.0832-.4259L30.5559 2.48172c.2846-.2735.4441-.64209.4441-1.02611 0-.38401-.1595-.752607-.4441-1.026101Z"
      fill="#3DC644" />
  </symbol>
  <symbol viewBox="0 0 27 27" fill="none" id="no">
    <path
      d="M15.6444 13.5065 26.5531 2.58654c.1416-.13987.254-.30645.3307-.49009.0767-.18364.1162-.38068.1162-.57971 0-.19902-.0395-.39606-.1162-.579699-.0767-.183638-.1891-.350221-.3307-.490089-.2851-.281053-.6694-.43860768-1.0697-.43860768-.4003 0-.7846.15755468-1.0697.43860768L13.505 11.3669 2.58626.446952C2.44641.305366 2.27984.192953 2.09622.11623 1.9126.0395068 1.71558 0 1.51658 0c-.199 0-.39602.0395068-.579639.11623C.753322.192953.586757.305366.446904.446952.165881.73209.00834343 1.11638.00834343 1.51674c0 .40037.15753757.78466.43856057 1.0698L11.3657 13.5065.446904 24.4164c-.141571.1398-.253972.3064-.330687.49C.0395025 25.0901 0 25.2871 0 25.4861c0 .1991.0395025.3961.116217.5797.076715.1837.189116.3503.330687.4901.283819.2835.668546.4428 1.069676.4428.40113 0 .78586-.1593 1.06968-.4428L13.505 15.6461l10.9087 10.9098c.2843.2831.6686.4426 1.0697.4441.2992-.0003.5916-.0892.8403-.2556.2487-.1663.4425-.4027.5569-.6791.1145-.2765.1445-.5806.0862-.8741-.0583-.2935-.2023-.5631-.4137-.7748L15.6444 13.5065Z"
      fill="#F25B26" />
  </symbol>
  <symbol viewBox="0 0 79 63" fill="none" id="quotes">
    <path
      d="M35.1468 6.97257 30.8388 0C28.3886 1.48142 0 12.0588 0 39.1293 0 46.2698.341426 63 18.9793 63c11.2369 0 13.9985-10.1527 13.9985-13.4217 0-21.7275-21.4697-13.9945-21.4697-13.9945 0-17.8067 19.883-26.51749 23.6387-28.61123ZM79 6.97257 74.7322 0C72.302 1.48142 43.8833 12.0588 43.8833 39.1293c0 7.1405.3414 23.8707 18.9893 23.8707 11.2269 0 13.9885-10.1527 13.9885-13.4217 0-21.7275-21.4697-13.9945-21.4697-13.9945C55.3914 17.7771 75.3146 9.06631 79 6.97257Z"
      fill="#EFEFEF" />
  </symbol>
  <symbol viewBox="0 0 22 41" id="left-arrow">
    <path opacity="0.3"
      d="M2.0413 20.5035L21.7483 1.4144C21.8281 1.3379 21.8914 1.24683 21.9346 1.14646C21.9778 1.04608 22 0.938398 22 0.829635C22 0.720871 21.9778 0.613187 21.9346 0.512814C21.8914 0.41244 21.8281 0.321369 21.7483 0.24487C21.6686 0.167255 21.5738 0.105671 21.4694 0.0636507C21.365 0.0216304 21.2532 0 21.1401 0C21.0271 0 20.9153 0.0216304 20.8109 0.0636507C20.7065 0.105671 20.6117 0.167255 20.532 0.24487L0.252535 19.9088C0.17249 19.9862 0.108978 20.0781 0.0656429 20.1793C0.0223074 20.2805 0 20.389 0 20.4985C0 20.6081 0.0223074 20.7166 0.0656429 20.8178C0.108978 20.919 0.17249 21.0109 0.252535 21.0883L20.532 40.7621C20.6967 40.9157 20.9167 41.001 21.1453 41C21.3139 40.9985 21.4783 40.9488 21.6181 40.8572C21.7578 40.7656 21.8666 40.6362 21.9309 40.485C21.9952 40.3339 22.0122 40.1677 21.9797 40.0072C21.9473 39.8467 21.8668 39.6991 21.7483 39.5827L2.0413 20.5035Z"
      fill="#283645" />
  </symbol>
</svg>
